<svg width="15" height="15" viewBox="0 0 15 15" fill="none" xmlns="http://www.w3.org/2000/svg">
<path d="M12.0595 8.19051H8.19048V12.0596C8.19048 12.2648 8.10895 12.4616 7.96383 12.6067C7.81871 12.7518 7.62189 12.8334 7.41667 12.8334C7.21144 12.8334 7.01462 12.7518 6.8695 12.6067C6.72438 12.4616 6.64286 12.2648 6.64286 12.0596V8.19051H2.77381C2.56858 8.19051 2.37176 8.10898 2.22664 7.96386C2.08153 7.81875 2 7.62192 2 7.4167C2 7.21147 2.08153 7.01465 2.22664 6.86953C2.37176 6.72441 2.56858 6.64289 2.77381 6.64289H6.64286V2.77384C6.64286 2.56861 6.72438 2.37179 6.8695 2.22667C7.01462 2.08156 7.21144 2.00003 7.41667 2.00003C7.62189 2.00003 7.81871 2.08156 7.96383 2.22667C8.10895 2.37179 8.19048 2.56861 8.19048 2.77384V6.64289H12.0595C12.2648 6.64289 12.4616 6.72441 12.6067 6.86953C12.7518 7.01465 12.8333 7.21147 12.8333 7.4167C12.8333 7.62192 12.7518 7.81875 12.6067 7.96386C12.4616 8.10898 12.2648 8.19051 12.0595 8.19051Z" fill="#F24E1E"/>
</svg>
