<svg width="16" height="6" viewBox="0 0 16 6" fill="none" xmlns="http://www.w3.org/2000/svg">
<path d="M2.57444 4.64007C3.44398 4.64007 4.14888 3.82522 4.14888 2.82004C4.14888 1.81486 3.44398 1 2.57444 1C1.7049 1 1 1.81486 1 2.82004C1 3.82522 1.7049 4.64007 2.57444 4.64007Z" stroke="#A1A3AB"/>
<path d="M8.08499 4.64007C8.95453 4.64007 9.65943 3.82522 9.65943 2.82004C9.65943 1.81486 8.95453 1 8.08499 1C7.21545 1 6.51054 1.81486 6.51054 2.82004C6.51054 3.82522 7.21545 4.64007 8.08499 4.64007Z" stroke="#A1A3AB"/>
<path d="M13.5955 4.64007C14.4651 4.64007 15.17 3.82522 15.17 2.82004C15.17 1.81486 14.4651 1 13.5955 1C12.726 1 12.0211 1.81486 12.0211 2.82004C12.0211 3.82522 12.726 4.64007 13.5955 4.64007Z" stroke="#A1A3AB"/>
</svg>
