<svg width="26" height="26" viewBox="0 0 26 26" fill="none" xmlns="http://www.w3.org/2000/svg">
<path d="M5.41667 23.8334H20.5833C21.7783 23.8334 22.75 22.8616 22.75 21.6667V5.41669C22.75 4.22177 21.7783 3.25002 20.5833 3.25002H18.4167C18.4167 2.9627 18.3025 2.68715 18.0994 2.48399C17.8962 2.28082 17.6207 2.16669 17.3333 2.16669H8.66667C8.37935 2.16669 8.1038 2.28082 7.90063 2.48399C7.69747 2.68715 7.58333 2.9627 7.58333 3.25002H5.41667C4.22175 3.25002 3.25 4.22177 3.25 5.41669V21.6667C3.25 22.8616 4.22175 23.8334 5.41667 23.8334ZM5.41667 5.41669H7.58333V7.58335H18.4167V5.41669H20.5833V21.6667H5.41667V5.41669Z" fill="white"/>
<path d="M11.9167 14.7182L9.97425 12.7757L8.44241 14.3076L11.9167 17.7818L17.5576 12.1409L16.0257 10.6091L11.9167 14.7182Z" fill="white"/>
</svg>
