<svg width="45" height="45" viewBox="0 0 45 45" fill="none" xmlns="http://www.w3.org/2000/svg">
<rect width="45" height="45" rx="8" fill="#FF6767"/>
<path d="M25.6372 32.4118C25.6372 32.5678 25.5767 32.7174 25.4689 32.8277C25.3612 32.938 25.215 33 25.0627 33H18.9342C18.7818 33 18.6356 32.938 18.5279 32.8277C18.4201 32.7174 18.3596 32.5678 18.3596 32.4118C18.3596 32.2558 18.4201 32.1061 18.5279 31.9958C18.6356 31.8855 18.7818 31.8235 18.9342 31.8235H25.0627C25.215 31.8235 25.3612 31.8855 25.4689 31.9958C25.5767 32.1061 25.6372 32.2558 25.6372 32.4118ZM30.8187 29.1765C30.7025 29.3859 30.5339 29.5599 30.3302 29.6805C30.1266 29.8011 29.8952 29.864 29.66 29.8627H14.3378C14.1021 29.8622 13.8708 29.7981 13.667 29.6769C13.4633 29.5557 13.2944 29.3816 13.1772 29.1723C13.0601 28.9629 12.999 28.7256 13 28.4844C13.001 28.2431 13.0641 28.0064 13.1829 27.798C13.724 26.8431 14.5293 24.151 14.5293 20.6471C14.5293 18.6189 15.3162 16.6739 16.7169 15.2398C18.1177 13.8057 20.0175 13 21.9984 13C23.9793 13 25.8791 13.8057 27.2799 15.2398C28.6806 16.6739 29.4675 18.6189 29.4675 20.6471C29.4675 24.15 30.2738 26.8431 30.8158 27.798C30.9359 28.0068 30.9995 28.2446 31 28.4869C31.0005 28.7291 30.9379 28.9672 30.8187 29.1765ZM29.8218 28.3922C29.0969 27.1176 28.3184 24.1451 28.3184 20.6471C28.3184 18.931 27.6526 17.2851 26.4673 16.0717C25.2821 14.8582 23.6746 14.1765 21.9984 14.1765C20.3222 14.1765 18.7147 14.8582 17.5295 16.0717C16.3442 17.2851 15.6784 18.931 15.6784 20.6471C15.6784 24.1461 14.8989 27.1176 14.174 28.3922C14.1572 28.422 14.1484 28.4558 14.1484 28.4902C14.1484 28.5246 14.1572 28.5584 14.174 28.5882C14.1898 28.6183 14.2133 28.6433 14.242 28.6606C14.2707 28.6779 14.3035 28.6868 14.3368 28.6863H29.659C29.6923 28.6868 29.7251 28.6779 29.7538 28.6606C29.7825 28.6433 29.806 28.6183 29.8218 28.5882C29.8386 28.5584 29.8475 28.5246 29.8475 28.4902C29.8475 28.4558 29.8386 28.422 29.8218 28.3922Z" fill="white"/>
</svg>
