<svg width="26" height="26" viewBox="0 0 26 26" fill="none" xmlns="http://www.w3.org/2000/svg">
<path d="M9.44279 26L8.92537 21.84C8.64511 21.7317 8.3808 21.6017 8.13244 21.45C7.88408 21.2983 7.64176 21.1358 7.40547 20.9625L3.55721 22.5875L0 16.4125L3.33085 13.8775C3.30929 13.7258 3.29851 13.5794 3.29851 13.4381V12.5619C3.29851 12.4206 3.30929 12.2742 3.33085 12.1225L0 9.5875L3.55721 3.4125L7.40547 5.0375C7.64262 4.86417 7.89055 4.70167 8.14925 4.55C8.40796 4.39833 8.66667 4.26833 8.92537 4.16L9.44279 0H16.5572L17.0746 4.16C17.3549 4.26833 17.6192 4.39833 17.8676 4.55C18.1159 4.70167 18.3582 4.86417 18.5945 5.0375L22.4428 3.4125L26 9.5875L22.6692 12.1225C22.6907 12.2742 22.7015 12.4206 22.7015 12.5619V13.4381C22.7015 13.5794 22.6799 13.7258 22.6368 13.8775L25.9677 16.4125L22.4104 22.5875L18.5945 20.9625C18.3574 21.1358 18.1095 21.2983 17.8507 21.45C17.592 21.6017 17.3333 21.7317 17.0746 21.84L16.5572 26H9.44279ZM13.0647 17.55C14.3151 17.55 15.3823 17.1058 16.2662 16.2175C17.1501 15.3292 17.592 14.2567 17.592 13C17.592 11.7433 17.1501 10.6708 16.2662 9.7825C15.3823 8.89417 14.3151 8.45 13.0647 8.45C11.7927 8.45 10.7199 8.89417 9.84637 9.7825C8.9728 10.6708 8.53645 11.7433 8.53732 13C8.53732 14.2567 8.97367 15.3292 9.84637 16.2175C10.7191 17.1058 11.7918 17.55 13.0647 17.55Z" fill="white"/>
</svg>
