<svg width="26" height="26" viewBox="0 0 26 26" fill="none" xmlns="http://www.w3.org/2000/svg">
<path d="M10.4577 21.3571H26V23.2143H10.4577V21.3571ZM2.87532 22.2857L0.0111019 24.6814L1.57643 26L6.01708 22.2857L1.57643 18.5714L0 19.8807L2.87532 22.2857ZM10.4577 12.0714H26V13.9286H10.4577V12.0714ZM2.87532 13L0.0111019 15.3957L1.57643 16.7143L6.01708 13L1.57643 9.28571L0 10.595L2.87532 13ZM10.4577 2.78571H26V4.64286H10.4577V2.78571ZM2.87532 3.71429L0.0111019 6.11L1.57643 7.42857L6.01708 3.71429L1.57643 0L0 1.30929L2.87532 3.71429Z" fill="white"/>
</svg>
