<svg width="24" height="28" viewBox="0 0 24 28" fill="none" xmlns="http://www.w3.org/2000/svg">
<path d="M19.0664 22.0869L17.775 21.3411V18.75C17.775 18.6771 17.746 18.6071 17.6945 18.5555C17.6429 18.504 17.5729 18.475 17.5 18.475C17.4271 18.475 17.3571 18.504 17.3055 18.5555C17.254 18.6071 17.225 18.6771 17.225 18.75V21.5C17.225 21.5483 17.2377 21.5957 17.2618 21.6375C17.286 21.6793 17.3207 21.714 17.3625 21.7382L18.7914 22.5631C18.8226 22.5814 18.8571 22.5933 18.8929 22.5981C18.9287 22.6029 18.9651 22.6006 19 22.5912C19.0349 22.5819 19.0676 22.5657 19.0962 22.5436C19.1247 22.5215 19.1487 22.4939 19.1665 22.4625C19.203 22.3994 19.213 22.3244 19.1942 22.254C19.1754 22.1835 19.1295 22.1234 19.0664 22.0869ZM17.5 16C14.4624 16 12 18.4624 12 21.5C12 24.5377 14.4624 27 17.5 27C20.536 26.9967 22.9967 24.536 23 21.5C23 18.4624 20.5377 16 17.5 16ZM17.5 26.45C16.85 26.45 16.2063 26.322 15.6057 26.0732C15.0052 25.8244 14.4595 25.4598 13.9998 25.0002C13.5402 24.5405 13.1756 23.9948 12.9268 23.3943C12.678 22.7937 12.55 22.15 12.55 21.5C12.55 20.85 12.678 20.2063 12.9268 19.6057C13.1756 19.0052 13.5402 18.4595 13.9998 17.9998C14.4595 17.5402 15.0052 17.1756 15.6057 16.9268C16.2063 16.678 16.85 16.55 17.5 16.55C18.8124 16.5515 20.0706 17.0734 20.9986 18.0014C21.9266 18.9294 22.4485 20.1876 22.45 21.5C22.45 22.8128 21.9285 24.0719 21.0002 25.0002C20.0719 25.9285 18.8128 26.45 17.5 26.45Z" fill="#888888" stroke="#A1A3AB"/>
<path d="M15.8909 2.39129H13.5073V1.59419C13.506 1.17178 13.3382 0.767019 13.0404 0.468322C12.7427 0.169626 12.3392 0.00126159 11.9182 0H5.56182C5.14075 0.00126159 4.73729 0.169626 4.43955 0.468322C4.14181 0.767019 3.97398 1.17178 3.97273 1.59419V2.39129H1.58909C1.16802 2.39255 0.764563 2.56092 0.466823 2.85961C0.169083 3.15831 0.00125755 3.56307 0 3.98549V20.7245C0.00125755 21.1469 0.169083 21.5517 0.466823 21.8504C0.764563 22.1491 1.16802 22.3175 1.58909 22.3187H8.74V20.7245H1.58909V3.98549H3.97273V6.37678H13.5073V3.98549H15.8909V12.7536H17.48V3.98549C17.4787 3.56307 17.3109 3.15831 17.0132 2.85961C16.7154 2.56092 16.312 2.39255 15.8909 2.39129ZM11.9182 4.78258H5.56182V1.59419H11.9182V4.78258Z" fill="#A1A3AB"/>
</svg>
