<svg width="9" height="22" viewBox="0 0 9 22" fill="none" xmlns="http://www.w3.org/2000/svg">
<path d="M4.5 0C3.30653 0 2.16193 0.449083 1.31802 1.24846C0.474106 2.04783 0 3.13201 0 4.2625C0 7.4745 1.40168 11.4697 2.10542 13.2814C2.28733 13.7436 2.61484 14.1417 3.04358 14.4217C3.47233 14.7017 3.98157 14.85 4.50232 14.8467C5.55213 14.8467 6.52181 14.2505 6.89806 13.2869C7.60181 11.4829 9 7.5075 9 4.2625C9 3.13201 8.52589 2.04783 7.68198 1.24846C6.83807 0.449083 5.69347 0 4.5 0ZM4.50116 16.4978C3.73087 16.4978 2.99213 16.7876 2.44745 17.3036C1.90277 17.8195 1.59677 18.5193 1.59677 19.2489C1.59677 19.9785 1.90277 20.6783 2.44745 21.1942C2.99213 21.7102 3.73087 22 4.50116 22C5.27145 22 6.01019 21.7102 6.55487 21.1942C7.09955 20.6783 7.40555 19.9785 7.40555 19.2489C7.40555 18.5193 7.09955 17.8195 6.55487 17.3036C6.01019 16.7876 5.27145 16.4978 4.50116 16.4978Z" fill="white"/>
</svg>
